<svg width="175" height="65" viewBox="0 0 175 65" fill="none" xmlns="http://www.w3.org/2000/svg">
  <path d="M0 4.65035L18.0404 32.1891L0 59.7218L6.64896 64.0774L27.5417 32.1891L6.64896 0.2948L0 4.65035Z" fill="#F9F9F9"/>
  <path d="M65.9988 64.0654C57.5444 64.0654 49.4363 60.707 43.4582 54.7288C37.4801 48.7507 34.1216 40.6426 34.1216 32.1882C34.1216 23.7339 37.4801 15.6258 43.4582 9.64765C49.4363 3.66952 57.5444 0.311035 65.9988 0.311035V8.25865C62.8405 8.23379 59.7085 8.8344 56.7834 10.0258C53.8583 11.2173 51.198 12.9759 48.9559 15.2005C46.7137 17.425 44.9342 20.0714 43.7198 22.987C42.5053 25.9026 41.8801 29.0298 41.8801 32.1882C41.8801 35.3467 42.5053 38.4738 43.7198 41.3895C44.9342 44.3051 46.7137 46.9515 48.9559 49.176C51.198 51.4005 53.8583 53.1592 56.7834 54.3506C59.7085 55.5421 62.8405 56.1427 65.9988 56.1178V64.0654Z" fill="#F9F9F9"/>
  <path d="M94.9414 0.307007H97.8355V20.1877H94.9414V11.2122H85.0006V20.1877H82.1064V0.307007H85.0006V8.81517H94.9414V0.307007Z" fill="#F9F9F9"/>
  <path d="M102.162 1.76825C102.174 1.29531 102.37 0.845663 102.709 0.515293C103.047 0.184922 103.502 0 103.975 0C104.448 0 104.902 0.184922 105.241 0.515293C105.579 0.845663 105.775 1.29531 105.787 1.76825C105.767 2.23553 105.568 2.67705 105.23 3.00063C104.892 3.32422 104.442 3.50487 103.975 3.50487C103.507 3.50487 103.057 3.32422 102.72 3.00063C102.382 2.67705 102.182 2.23553 102.162 1.76825M102.603 5.7446H105.293V20.1875H102.603V5.7446Z" fill="#F9F9F9"/>
  <path d="M109.735 20.1875V5.74456H112.253V9.9259H112.341C113.102 6.38818 114.446 5.4525 116.551 5.4525C117.063 5.44946 117.574 5.5083 118.072 5.62774L118.219 8.28819C117.678 8.1906 117.13 8.14155 116.581 8.14161C113.921 8.14161 112.429 9.72091 112.429 12.5268V20.1875H109.735Z" fill="#F9F9F9"/>
  <path d="M120.318 1.76825C120.33 1.29531 120.526 0.845663 120.865 0.515293C121.203 0.184922 121.658 0 122.131 0C122.604 0 123.058 0.184922 123.397 0.515293C123.735 0.845663 123.931 1.29531 123.943 1.76825C123.923 2.23553 123.723 2.67705 123.386 3.00063C123.048 3.32422 122.598 3.50487 122.131 3.50487C121.663 3.50487 121.213 3.32422 120.876 3.00063C120.538 2.67705 120.338 2.23553 120.318 1.76825M120.759 5.7446H123.449V20.1875H120.759V5.7446Z" fill="#F9F9F9"/>
  <path d="M127.891 20.1875V5.74454H130.434V9.39908H130.523C131.074 6.70997 132.686 5.42273 135.113 5.42273C138.3 5.42273 140.113 7.26433 140.113 11.212V20.1875H137.422V11.3873C137.422 9.13568 136.339 7.81978 134.147 7.81978C133.665 7.76209 133.176 7.81468 132.717 7.97359C132.258 8.13249 131.841 8.39355 131.497 8.73709C131.154 9.08062 130.893 9.49766 130.734 9.95674C130.576 10.4158 130.523 10.905 130.581 11.3873V20.1875H127.891Z" fill="#F9F9F9"/>
  <path d="M157.248 20.8895C157.248 24.2222 154.003 25.8886 149.501 25.8886C145.027 25.8886 142.63 24.7777 142.63 22.4721C142.63 20.8641 143.77 19.87 146.402 19.5482C146.076 19.4999 145.754 19.4314 145.437 19.3432C144.987 19.2348 144.588 18.9753 144.306 18.6081C144.024 18.2409 143.876 17.7881 143.888 17.3253C143.888 16.0094 145.028 15.0737 147.25 14.9569C146.21 14.7698 145.271 14.2151 144.606 13.394C143.94 12.5729 143.592 11.54 143.624 10.4835C143.624 7.99829 145.498 5.74451 150.466 5.74451H156.576V8.11291H155.904C155.173 7.2654 154.149 6.88517 151.372 6.88517L151.342 6.94358C154.324 7.58721 155.2 9.04858 155.2 10.5981C155.2 13.4922 152.802 15.2468 149.557 15.2468C148.988 15.2441 148.421 15.195 147.861 15.1002C146.721 15.2468 146.341 15.7725 146.341 16.3577C146.341 16.9429 146.691 17.2647 147.715 17.2933C148.651 17.2933 150.756 17.1468 152.13 17.1468C155.547 17.1754 157.247 18.3161 157.247 20.8939M154.47 21.2443C154.47 20.1334 153.681 19.5482 151.693 19.5482C150.435 19.5185 148.799 19.6364 147.541 19.6066H147.424C146.108 19.8403 145.348 20.4883 145.348 21.4482C145.348 22.9394 146.956 23.6116 149.616 23.6116C152.452 23.6116 154.466 22.8225 154.466 21.2432M149.466 13.1451C151.483 13.1451 152.477 12.1807 152.477 10.5133C152.477 8.8458 151.485 7.88257 149.466 7.88257C147.447 7.88257 146.396 8.848 146.396 10.5133C146.396 12.1785 147.448 13.1451 149.466 13.1451Z" fill="#F9F9F9"/>
  <path d="M81.0011 38.2441C81.0011 31.6657 84.7725 28.0112 90.24 28.0112C92.3 27.9318 94.3137 28.6355 95.8758 29.9807C97.438 31.3259 98.4328 33.2129 98.6599 35.2619L95.7658 35.8757C95.1222 32.3094 93.1341 30.6132 90.0934 30.6132C86.3463 30.6132 83.9536 33.4203 83.9536 38.2441C83.9536 43.0393 86.3782 45.875 90.0647 45.875C93.1638 45.875 95.3856 44.0015 95.8243 40.0868L98.7184 40.7591C98.5701 42.9316 97.5731 44.9585 95.9427 46.402C94.3124 47.8455 92.1797 48.5897 90.0052 48.4738C84.7152 48.4738 81 44.7895 81 38.2408" fill="#F9F9F9"/>
  <path d="M100.995 40.9332C100.995 35.9925 104.153 33.3905 108.129 33.3905C112.077 33.3905 115.205 35.9925 115.205 40.9332C115.205 45.8453 112.076 48.4473 108.129 48.4473C104.153 48.4473 100.995 45.8453 100.995 40.9332M112.397 40.9332C112.397 37.627 110.701 35.7876 108.129 35.7876C105.557 35.7876 103.831 37.6303 103.831 40.9332C103.831 44.2076 105.556 46.0789 108.129 46.0789C110.702 46.0789 112.397 44.2053 112.397 40.9332Z" fill="#F9F9F9"/>
  <path d="M117.979 40.8464C117.979 35.8759 120.552 33.4491 123.855 33.4491C124.462 33.3866 125.075 33.4446 125.659 33.6195C126.244 33.7945 126.788 34.0831 127.26 34.4688C127.733 34.8545 128.125 35.3297 128.413 35.8671C128.702 36.4046 128.882 36.9937 128.942 37.6007H129.001V28.2748H131.661V48.151H129.001V43.9752H128.942C128.182 46.9575 126.691 48.4486 124.06 48.4486C120.697 48.4486 117.979 45.8752 117.979 40.8442M128.913 40.8442C128.913 37.4817 127.276 35.7867 124.85 35.7867C122.453 35.7867 120.815 37.453 120.815 40.8442C120.815 44.3521 122.511 46.078 124.85 46.078C127.218 46.078 128.913 44.3235 128.913 40.8442Z" fill="#F9F9F9"/>
  <path d="M148.501 41.1096H138.121C138.151 44.5591 139.496 46.1968 142.156 46.1968C143.041 46.3014 143.933 46.058 144.642 45.5181C145.351 44.9781 145.823 44.1838 145.957 43.3027L148.443 43.9166C147.892 46.6939 145.665 48.4484 142.098 48.4484C137.713 48.4484 135.314 45.7582 135.314 41.2275C135.314 36.5789 137.858 33.3916 142.243 33.3916C146.22 33.3916 148.525 35.9066 148.525 40.4086C148.525 40.8759 148.495 40.9597 148.495 41.1107M138.263 39.2371H145.66C145.601 36.9855 144.344 35.5826 142.122 35.5826C140.017 35.5826 138.673 36.8401 138.265 39.2371" fill="#F9F9F9"/>
  <path d="M152.04 48.1555V33.7126H154.554V37.8939H154.642C155.402 34.3562 156.747 33.4205 158.852 33.4205C159.364 33.4175 159.875 33.4763 160.373 33.5958L160.519 36.2562C159.979 36.1586 159.431 36.1096 158.882 36.1096C156.221 36.1096 154.73 37.6889 154.73 40.4949V48.1555H152.04Z" fill="#F9F9F9"/>
  <path d="M162.126 43.6533L164.904 43.0692C164.91 43.525 165.012 43.9744 165.202 44.3887C165.392 44.803 165.666 45.1733 166.007 45.4758C166.348 45.7783 166.749 46.0065 167.183 46.1458C167.617 46.2852 168.075 46.3326 168.528 46.2851C170.78 46.2851 171.945 45.4035 171.945 43.9465C171.945 42.5435 170.834 42.1633 168.992 41.8713L166.678 41.5208C164.694 41.1692 162.585 40.3515 162.585 37.7494C162.585 35.0306 164.982 33.4226 168.227 33.4226C171.268 33.4226 173.783 34.884 174.134 37.7494L171.473 38.3335C171.446 37.9261 171.336 37.5285 171.15 37.1651C170.964 36.8016 170.705 36.48 170.391 36.22C170.076 35.96 169.711 35.767 169.319 35.6528C168.927 35.5387 168.516 35.5058 168.111 35.5563C166.503 35.5563 165.333 36.2285 165.333 37.54C165.333 38.7678 166.298 39.1193 167.702 39.353L169.807 39.6748C172.231 40.0837 174.69 40.6667 174.69 43.6214C174.69 46.7502 172.322 48.4452 168.609 48.4452C164.924 48.4452 162.352 46.8373 162.119 43.65" fill="#F9F9F9"/>
  <path d="M136.651 61.6454C135.537 61.6454 134.656 61.4015 134.007 60.9137C133.362 60.4259 132.993 59.6741 132.899 58.6583L134.221 58.3293C134.28 58.741 134.378 59.0879 134.517 59.3698C134.66 59.6517 134.841 59.871 135.06 60.0276C135.284 60.1798 135.524 60.2872 135.779 60.3498C136.038 60.4125 136.338 60.4438 136.678 60.4438C137.3 60.4438 137.799 60.2961 138.175 60.0008C138.551 59.7009 138.739 59.3094 138.739 58.8261C138.739 58.6023 138.703 58.4099 138.632 58.2488C138.56 58.0832 138.466 57.9467 138.35 57.8393C138.238 57.7274 138.077 57.629 137.866 57.544C137.656 57.4589 137.443 57.3918 137.229 57.3426C137.014 57.2889 136.739 57.233 136.403 57.1748C135.342 57.0092 134.564 56.7385 134.067 56.3626C133.575 55.9822 133.329 55.396 133.329 54.6039C133.329 53.8207 133.617 53.192 134.195 52.7176C134.776 52.2433 135.551 52.0061 136.517 52.0061C137.457 52.0061 138.215 52.2254 138.793 52.6639C139.374 53.098 139.719 53.7626 139.826 54.6576L138.605 55.0133C138.497 54.3421 138.267 53.87 137.913 53.597C137.564 53.324 137.079 53.1875 136.457 53.1875C135.915 53.1875 135.483 53.3016 135.161 53.5299C134.843 53.7581 134.685 54.0803 134.685 54.4965C134.685 54.9574 134.839 55.2953 135.148 55.5101C135.457 55.7204 136 55.8904 136.779 56.0202C137.343 56.1142 137.815 56.2216 138.195 56.3424C138.58 56.4632 138.927 56.6266 139.236 56.8324C139.549 57.0383 139.779 57.3001 139.927 57.6178C140.079 57.9311 140.155 58.3092 140.155 58.7522C140.155 59.6517 139.831 60.3588 139.182 60.8734C138.538 61.388 137.694 61.6454 136.651 61.6454Z" fill="#F9F9F9"/>
  <path d="M148.143 52.1404V53.2815H145.223V61.491H143.867V53.2815H140.934V52.1404H148.143Z" fill="#F9F9F9"/>
  <path d="M152.963 61.6252C152.35 61.6252 151.782 61.52 151.258 61.3097C150.734 61.0949 150.278 60.7884 149.889 60.3901C149.504 59.9918 149.202 59.4884 148.982 58.8798C148.768 58.2667 148.66 57.5798 148.66 56.819C148.66 56.0583 148.768 55.3713 148.982 54.7583C149.202 54.1452 149.504 53.6395 149.889 53.2412C150.278 52.8429 150.734 52.5386 151.258 52.3283C151.782 52.1135 152.35 52.0061 152.963 52.0061C153.576 52.0061 154.144 52.1135 154.668 52.3283C155.196 52.5386 155.652 52.8429 156.037 53.2412C156.427 53.6395 156.731 54.1452 156.95 54.7583C157.169 55.3713 157.279 56.0583 157.279 56.819C157.279 57.5798 157.169 58.2667 156.95 58.8798C156.731 59.4884 156.427 59.9918 156.037 60.3901C155.652 60.7884 155.198 61.0949 154.675 61.3097C154.151 61.52 153.58 61.6252 152.963 61.6252ZM152.963 60.4035C153.844 60.4035 154.545 60.088 155.064 59.4571C155.588 58.8216 155.849 57.9423 155.849 56.819C155.849 55.6958 155.588 54.8164 155.064 54.181C154.545 53.5455 153.844 53.2278 152.963 53.2278C152.086 53.2278 151.388 53.5455 150.869 54.181C150.349 54.8164 150.09 55.6958 150.09 56.819C150.09 57.9423 150.349 58.8216 150.869 59.4571C151.388 60.088 152.086 60.4035 152.963 60.4035Z" fill="#F9F9F9"/>
  <path d="M163.723 57.45L166.079 61.491H164.576L162.421 57.6447H160.427V61.491H159.065V52.1404H162.132C163.309 52.1404 164.2 52.3798 164.804 52.8586C165.412 53.333 165.717 54.0109 165.717 54.8925C165.717 56.2395 165.052 57.092 163.723 57.45ZM160.427 56.4901H162.132C163.578 56.4901 164.3 55.962 164.3 54.9059C164.3 54.3779 164.117 53.9774 163.75 53.7044C163.388 53.4314 162.848 53.2949 162.132 53.2949H160.427V56.4901Z" fill="#F9F9F9"/>
  <path d="M173.933 61.491H167.791V52.1404H173.92V53.3419H169.154V56.0471H173.235V57.2151H169.154V60.2961H173.933V61.491Z" fill="#F9F9F9"/>
</svg>
